<?xml version="1.0" encoding="UTF-8" standalone="no"?>
<svg
   viewBox="0 0 128 128"
   version="1.1"
   id="svg13"
   sodipodi:docname="ente-installer.svg"
   inkscape:export-filename="ente-installer.png"
   inkscape:export-xdpi="96"
   inkscape:export-ydpi="96"
   inkscape:version="1.4.4 (dcaf3e7d9e, 2026-05-05)"
   xmlns:inkscape="http://www.inkscape.org/namespaces/inkscape"
   xmlns:sodipodi="http://sodipodi.sourceforge.net/DTD/sodipodi-0.dtd"
   xmlns="http://www.w3.org/2000/svg"
   xmlns:svg="http://www.w3.org/2000/svg">
  <defs
     id="defs13" />
  <sodipodi:namedview
     id="namedview13"
     pagecolor="#ffffff"
     bordercolor="#000000"
     borderopacity="0.25"
     inkscape:showpageshadow="2"
     inkscape:pageopacity="0.0"
     inkscape:pagecheckerboard="0"
     inkscape:deskcolor="#d1d1d1"
     inkscape:zoom="5.4"
     inkscape:cx="63.981481"
     inkscape:cy="64.259259"
     inkscape:window-width="1368"
     inkscape:window-height="819"
     inkscape:window-x="0"
     inkscape:window-y="0"
     inkscape:window-maximized="1"
     inkscape:current-layer="svg13" />
  <!-- SVG created with Arrow, by QuiverAI (https://quiver.ai) -->
  <style
     type="text/css"
     id="style1">.cls-0 {fill:#292B30;}
.cls-1 {fill:#FFFFFF;}
.cls-2 {fill:#E0E0E0;}
.cls-3 {fill:#2B2C33;}
.cls-4 {fill:#303137;}
.cls-5 {fill:#5FC654;}
.cls-6 {fill:#65C958;}
.cls-7 {fill:#9CE296;}
.cls-8 {fill:#0A0A0A;}
.cls-9 {fill:#5FC354;}</style>
  <path
     class="cls-0"
     d="m93.3 15.7c10.8 6.4 23.7 21.5 23.9 40.6 0.2 19.2-13.6 30.2-34.1 37.3-6.8 2.3-12.3 3.4-17.5 3.4-24.1 0-54.6-15.5-55.9-30.4-0.7-8.3 0.7-14.1 2.7-22.6 0.6-2.1-2.3-3.7-2.7-4.2-1.9-2-3.6-3.7-5-8.2-1.2-4-0.2-9.4 3.3-13.2 2.5-2.7 6.4-4.6 9.6-4.5 2 0 4.2 0.8 4.9 0.8 0.8-0.2 1.5-1.3 2.6-1.6 2-1 3.5-1.7 7-1.6 4.4 0.1 5.6 1.5 7.6 2.1 0.9 0.2 5.8-2.3 9.8-3.3 5.1-1.3 9.6-2.1 14.9-2.1 8.3 0 19 1.1 28.9 7.5z"
     id="path1" />
  <path
     class="cls-1"
     d="m64.6 13.7c5.4 0 8.4 0.7 12.6 1.4l6.1 1.9 6.3 3.2 1.6 0.8 2.9 2.3 0.5 0.6 0.6 0.2 0.9 1.1 1.1 0.7 0.7 1 0.7 0.4 0.8 1.1 0.9 0.7 0.7 1.1 0.6 0.4 1 1.7 0.6 0.4 1.5 2.5 2.8 4.8 1.6 3.8c1.4 3.6 3 9.8 3 14.1 0 13.5-11.7 18.9-21.4 19.2l-40.7 0.1c-2.2 0-4.3 0.3-4.5 2.4 0.6 4.9 8 9.6 19.9 9.6 9.2 0 14.5-2.5 18.5-4.8 2.4-1 4.1-2.8 7.7-2.8 5.9-0.2 13.5 4.6 13.5 4.6-3.9 6.4-9.9 12.5-17.7 16.2s-15.5 12.3-22.3 12.3c-24.7 0-49.9-17.5-50.1-51 0-7.8 1.4-14.6 3.7-20.3 8.2-3.7 16.9-21 22.8-24.2 4-2 9-3.5 9.6-3.6 3.3-0.9 6.6-1.1 8.6-1.6 1.5-0.2 3.8-0.3 4.9-0.3z"
     id="path2" />
  <path
     class="cls-2"
     d="m15.1 64.7c-0.1-6.2 0.8-13.3 3.6-21.3l7.4 4.2c-5.4 4.5-9.2 10.3-11 17.1z"
     id="path3" />
  <path
     class="cls-3"
     d="m46.2 53c-0.8-0.9-1.2-3.1 1-5.9 1.5-2.2 4.7-5.1 7.4-6.5 2-0.6 2.8-1.9 8.9-2.2 2.9 0 6.5 0.1 8.1 0.8l4.1 1.7 0.9 1 0.9 0.3 2.2 1.9 1.9 2.4 0.9 1.6c1.1 0.8 1.2 4.4 0.1 5.1-0.5 0.4-2.9 0.5-4.2 0.5h-28.8c-1.2 0-3.1-0.3-3.4-0.7z"
     id="path4" />
  <path
     class="cls-4"
     d="m46.5 81.7c-0.6-1.6-1.4-2.7 0.4-4.1 0.8-0.4 2.2-0.5 3.7-0.4h39c3.5 0 7-0.3 7.8-0.5l-0.5 6c-1.9-0.6-2.8-1.1-5.3-1.1-4.1 0-5.5 1.3-9.5 3-5.1 2.6-10.5 4.6-17 4.6-8.5 0-14.9-2.1-18.6-7.5z"
     id="path5" />
  <path
     class="cls-0"
     d="m43 109.4 4.9 1.8c5.6 2 10.3 2.9 16.6 3.4 7.4 0.1 14.9-1.1 19.2-2.6 2-0.8 6.4-1.9 7.2-2.8l4.3 4c-1.2 1.4-11.7 4.7-12.8 4.8-2 0.6-8.9 1.7-10.8 1.7-4.7 0.3-10 0.2-12.9-0.2-8.1-1.1-11.8-1.9-21.1-6.1l-4.9-3c-3.1-2-6.8-5.3-7.1-5.8l-2.9-3-4.3-5.7-2.3-4.2c-1.9-3.3-4.2-9.3-5.4-16.2-1.3-5.9-1.2-17.1-0.3-22.3l4.2 4.4c-0.2 4.8 0.4 12.3 1.8 20.8l4.1 9.2 2 3.8 1.5 2.2 1.5 2.4 1.9 2.4 4.2 3.7c2.8 2.5 7.8 5.6 11.4 7.3z"
     id="path6" />
  <path
     class="cls-3"
     d="m23.4 20.7 2.3-2.2c1.7-1.4 3.3-2.1 6.3-2.1 4.7 0 10.7 2.8 10.6 9.3 0 4.2-0.9 5.7-2.1 7.9l-2 3-5.5 6.8-1.1 1.2c-1.3 1.8-2.5 3-4.4 3.1-1.9 0-2.4-0.3-5.8-2.2l-4.1-2.4-5.5-5.2-3.2-4-1.7-3.5-0.1-4.3 1.4-3.7 3.1-2.9 4.1-1.9 3.9 0.1 3.8 3z"
     id="path7" />
  <path
     class="cls-5"
     d="m23.4 20.7c2.5-2.3 3.7-4.2 8.5-4.3 6.1-0.2 8.7 4.7 8.5 9.8 0 3.5-1.7 5.5-2.3 6.7l-5.6 7.7-2.4 3c-1.1 1-1.7 1.9-2.7 1.9-1.3 0.1-3.7-1.5-5.9-2.6l-4-2.8-5-4.2c-1.9-2.2-4-5-4.1-7.2 0-5.3 3.5-10 8.5-10.1 3 0 4.7 1.1 6.5 2.1z"
     id="path8" />
  <path
     class="cls-6"
     d="m17.4 19c2.7 0.1 4.2 1.6 6.1 2.5l3-3 3.9-1.5 4.1-0.1c3 0.8 5.7 4 5.7 7.8 0.2 3.8-1.1 6-2.7 8.7l-4.5 6.2-4.1 4.9c-0.5 0.6-1.5 0.7-2.5 0.4l-5-2.5-5.3-3.4-4-3.6c-1.6-1.9-3.5-4.5-3.6-6.9 0-5.3 3.9-9.6 8.9-9.5z"
     id="path9" />
  <path
     class="cls-7"
     d="m15.6 23c1.6 0 2.9 0.6 2.9 2.6 0 1.6-1 2.9-2.9 2.8-1.6 0-2.6-1-2.6-2.8 0-1.7 1-2.6 2.6-2.6z"
     id="path10" />
  <path
     class="cls-8"
     d="m103.2 72c3.5 0 6 2.7 5.9 6.1v20l5-5.7c2.3-2.3 5.6-2.8 8-0.7l1.4 1.8c0.9 2.1 0.2 4-0.1 5.5l-1.3 1.9-5.5 6.2-5.9 6.9-3.1 3.5c-2.6 2.6-5.7 3.4-9 0.5l-2.1-2.3-0.6-1-1-0.7-4.4-4.8-4.4-5.1-2.1-2.6-2-2.3c-0.9-2-1-4.5 0.5-6.3l1-1.3c3.1-2.1 5.4-2.4 8.4 0l1.7 1.8 3.5 4.7v-20.1c0-2.4 1.9-6 6.1-6z"
     id="path11" />
  <path
     class="cls-9"
     d="m106.6 78v26.5l9.8-10.9c1.3-1 3.7-1.1 4.7 0.4 1 1.1 0.9 3.2 0 4l-15.2 18.1c-1.4 1.4-4.3 2.1-6.2 0l-15-17.1c-1.2-1.5-1.2-4 0.4-5.3 1.3-1 3.5-1.1 4.8 0l9.6 10.9v-26.7c0.1-1.5 0.7-2.8 3-3.4 2-0.4 4 1.1 4.1 3.5z"
     id="path12" />
  <path
     class="cls-6"
     d="m106.4 77.9v26.2l10-10.5c1.6-1 3.2-0.7 4.2 0.1 1 1.3 1.3 3 0.4 4.2l-15.1 18.2c-0.9 1.1-4 2-5.8 0l-14.9-17.1c-1.1-1.5-1.8-3.5 0.2-5.1 1.3-0.9 3-0.9 4.3 0.1l9.9 10.6-0.1-26.6c0.1-1.6 0.7-2.9 3-3.5 2-0.4 3.7 1.1 3.9 3.4z"
     id="path13" />
  <path
     style="fill:#ffffff;stroke-width:0.185185"
     d="m 63.333333,114.4134 c -6.363007,-0.63185 -10.678579,-1.62146 -16.940822,-3.88472 -4.547705,-1.64361 -8.676198,-3.8807 -12.569987,-6.81125 -2.323011,-1.74835 -6.172137,-5.239152 -7.215048,-6.543389 C 25.288426,95.524474 22.956035,91.9342 21.706313,89.62963 20.529771,87.460009 16.99265,79.573489 17.110552,79.38272 c 0.04446,-0.07193 -0.120933,-0.962472 -0.367533,-1.978976 -0.886014,-3.652222 -1.552541,-8.504896 -1.555984,-11.328392 -0.0022,-1.831117 0.611935,-3.861493 2.133093,-7.051785 1.765743,-3.703258 3.813587,-6.526695 6.967566,-9.606436 l 1.734813,-1.693979 1.109117,0.0047 c 2.29041,0.0097 2.93204,-0.54386 8.3132,-7.1723 5.966609,-7.349591 7.128943,-9.675287 7.174772,-14.355895 0.02438,-2.490093 -0.237992,-3.616195 -1.223187,-5.249875 -0.360616,-0.597988 -0.655668,-1.124619 -0.655668,-1.170291 0,-0.04567 0.854166,-0.485068 1.898148,-0.976434 2.280357,-1.073287 6.063946,-2.461328 8.36777,-3.069787 1.852265,-0.489199 7.693045,-1.514925 10.01186,-1.758228 5.470635,-0.57401 13.139203,0.290948 19.16045,2.161159 2.763324,0.858294 3.815446,1.304471 7.222222,3.06276 3.713113,1.916394 4.456994,2.392234 6.672883,4.268454 3.435098,2.90854 7.365996,6.93018 8.014246,8.199248 0.15609,0.305555 0.48501,0.729416 0.73095,0.941914 0.88521,0.764838 4.60024,7.42573 5.82247,10.439439 1.85549,4.575173 3.39795,11.381871 3.3942,14.978228 -0.002,1.671252 -0.50707,4.574063 -1.09138,6.269248 -0.78076,2.265134 -2.07524,4.306358 -3.90752,6.161643 l -1.57408,1.593833 -2.03703,-0.007 c -1.77915,-0.0061 -2.14883,0.04856 -2.92002,0.431666 -1.082006,0.537504 -2.378919,1.822356 -2.814517,2.788339 -0.2967,0.657963 -0.422013,0.743998 -1.461662,1.003517 -2.651929,0.661974 -4.1705,0.709433 -26.641996,0.832607 l -22.27292,0.122087 -0.67473,0.419585 c -0.980357,0.609645 -1.362842,1.514813 -1.092972,2.586571 0.958002,3.804568 5.841324,7.145702 12.275217,8.398615 5.442764,1.059901 12.145363,0.835485 17.815413,-0.596497 2.280277,-0.575889 4.832081,-1.662031 8.627257,-3.672083 1.914893,-1.014189 3.986004,-2.013894 4.60247,-2.221569 1.657708,-0.55844 4.115661,-0.520374 6.250702,0.09681 0.902598,0.260915 1.704558,0.536885 1.782132,0.613267 0.07757,0.07638 0.11924,3.449692 0.09259,7.496246 l -0.04845,7.357372 -1.701429,-2.282063 c -2.067126,-2.772557 -3.752484,-4.431926 -5.152169,-5.072724 -0.893961,-0.409269 -1.24285,-0.467252 -2.473679,-0.411111 -1.995661,0.09103 -3.600341,0.902863 -4.858765,2.45813 -1.075491,1.329181 -1.462106,2.368375 -1.462106,3.930044 0,1.671624 0.426865,2.744337 1.647489,4.140143 0.578945,0.66204 1.590934,1.86862 2.248865,2.68128 0.657931,0.81267 2.092072,2.51252 3.18698,3.77745 1.094907,1.26492 1.99074,2.35747 1.99074,2.42788 0,0.21277 -0.849418,0.54587 -4.753318,1.864 -4.099339,1.38411 -6.850689,2.06126 -10.522135,2.58965 -3.983321,0.57327 -9.336521,0.85099 -11.761584,0.61018 z M 81.296296,53.615996 c 1.457082,-0.209239 1.941673,-0.663105 2.118163,-1.98387 0.257787,-1.929137 -0.398613,-3.486535 -2.702813,-6.4128 -1.197033,-1.520198 -2.860498,-3.01883 -3.660372,-3.297667 -0.299944,-0.104561 -0.670339,-0.380863 -0.823098,-0.614003 -0.27307,-0.416758 -4.229067,-2.187378 -5.67262,-2.538945 -1.367737,-0.3331 -6.492686,-0.533818 -8.5904,-0.336442 -2.521178,0.237222 -3.767821,0.549451 -6.023773,1.508694 -2.602618,1.106648 -4.341731,2.295443 -6.569898,4.490944 -2.559815,2.522289 -3.81122,4.673967 -3.81412,6.558039 -0.0029,1.869947 0.413655,2.333341 2.405598,2.676221 0.952737,0.163998 32.169106,0.117013 33.333333,-0.05017 z"
     id="path14" />
  <path
     style="fill:#ffffff;stroke-width:0.185185"
     d="m 61.666667,114.24075 c -6.175863,-0.74402 -10.756639,-1.92836 -17.407408,-4.50059 -5.093128,-1.9698 -11.694673,-6.48163 -16.3969,-11.206467 C 26.347822,97.011872 23.58529,93.068322 21.884344,90 20.796438,88.037535 16.855365,79.273826 17.030519,79.206617 c 0.07545,-0.02895 -0.101284,-1.028954 -0.392751,-2.222223 -0.713352,-2.92047 -1.245868,-6.634437 -1.389451,-9.690557 -0.116609,-2.482004 -0.109269,-2.549543 0.474768,-4.368478 1.480828,-4.611924 4.152742,-8.960411 7.837963,-12.756131 l 2.398146,-2.470056 1.140773,0.0075 c 1.970114,0.01292 2.658031,-0.417608 4.998329,-3.128178 2.53356,-2.934406 6.392711,-7.795969 7.531484,-9.487774 2.315531,-3.440048 2.962813,-5.400937 2.962813,-8.975602 0,-2.579629 -0.225189,-3.551255 -1.197136,-5.165314 -0.360094,-0.597988 -0.654716,-1.124619 -0.654716,-1.170291 0,-0.165013 3.843466,-1.882882 5.8858,-2.630707 3.328648,-1.218825 5.040133,-1.655852 9.577163,-2.445528 3.244483,-0.564706 4.965189,-0.766696 7.222222,-0.8478 5.347313,-0.192148 11.480537,0.643094 16.757278,2.282062 2.761172,0.857626 3.826163,1.308604 7.222222,3.058304 2.190905,1.128786 4.40013,2.392912 4.909389,2.809169 4.532935,3.705119 8.721055,7.854944 9.889835,9.799415 0.22921,0.381314 0.52603,0.756314 0.65961,0.833333 0.259,0.149326 2.13643,3.202518 3.84387,6.251146 2.01801,3.603126 3.9604,9.380167 4.88773,14.537037 0.44611,2.480791 0.44659,6.665815 9.8e-4,8.611111 -0.79876,3.487026 -2.2765,6.183324 -4.74099,8.650467 l -1.42671,1.428244 -1.57679,-0.111276 c -2.17754,-0.15367 -3.35431,0.225426 -4.770919,1.536954 -0.579033,0.536083 -1.201687,1.304894 -1.383674,1.708472 -0.304055,0.674276 -0.423094,0.756793 -1.468026,1.01763 -2.651929,0.661974 -4.1705,0.709433 -26.641996,0.832607 l -22.27292,0.122087 -0.67473,0.419585 c -0.980357,0.609645 -1.362842,1.514813 -1.092972,2.586571 0.846081,3.360091 4.620043,6.272585 10.237157,7.900359 5.691847,1.649433 14.482369,1.509413 20.621902,-0.328476 2.283735,-0.683644 4.522321,-1.669878 8.038272,-3.541354 1.782408,-0.94874 3.758945,-1.899283 4.392306,-2.112316 1.690626,-0.568647 4.13007,-0.534835 6.281422,0.08706 0.902598,0.260915 1.704558,0.536885 1.782132,0.613267 0.07757,0.07638 0.11924,3.449692 0.09259,7.496246 l -0.04845,7.357372 -1.701429,-2.282063 c -2.067126,-2.772557 -3.752484,-4.431926 -5.152169,-5.072724 -0.893961,-0.409269 -1.24285,-0.467252 -2.473679,-0.411111 -1.995278,0.09101 -3.638037,0.919209 -4.828926,2.434507 -1.112426,1.415461 -1.469537,2.350219 -1.481874,3.878867 -0.01849,2.291365 0.109783,2.487474 6.6103,10.10602 1.349537,1.58164 2.453703,2.93148 2.453703,2.99963 0,0.20804 -0.87187,0.5529 -4.537037,1.7946 -5.753548,1.94922 -9.915494,2.78102 -15.986953,3.19515 -3.584382,0.24448 -5.497561,0.22047 -8.179713,-0.10266 z M 82.258833,53.480487 c 0.869354,-0.388437 1.165567,-1.070278 1.152347,-2.652544 -0.01068,-1.278695 -0.07846,-1.534182 -0.703413,-2.65171 -1.482365,-2.650714 -4.257365,-5.729631 -5.636734,-6.254066 -0.239548,-0.09108 -0.670653,-0.400706 -0.958013,-0.688063 -0.723514,-0.723515 -4.910653,-2.372345 -6.675739,-2.6288 -0.759948,-0.110417 -2.881725,-0.208045 -4.715059,-0.216952 -3.983929,-0.01936 -5.850279,0.305628 -8.703703,1.515554 -2.135132,0.905353 -3.751976,1.92674 -5.476125,3.459355 -3.297483,2.931172 -4.986838,5.52108 -4.986838,7.645189 0,1.660878 0.488674,2.275876 2.059305,2.591648 1.310609,0.263495 34.039454,0.150496 34.643972,-0.119611 z"
     id="path15" />
</svg>
