<svg xmlns="http://www.w3.org/2000/svg" viewBox="0 0 128 128">
<!-- SVG created with Arrow, by QuiverAI (https://quiver.ai) -->
  <style type="text/css">.cls-0 {fill:#292B30;}
.cls-1 {fill:#FFFFFF;}
.cls-2 {fill:#E0E0E0;}
.cls-3 {fill:#2B2C33;}
.cls-4 {fill:#303137;}
.cls-5 {fill:#5FC654;}
.cls-6 {fill:#65C958;}
.cls-7 {fill:#9CE296;}
.cls-8 {fill:#0A0A0A;}
.cls-9 {fill:#5FC354;}</style>
  <path class="cls-0" d="m93.3 15.7c10.8 6.4 23.7 21.5 23.9 40.6 0.2 19.2-13.6 30.2-34.1 37.3-6.8 2.3-12.3 3.4-17.5 3.4-24.1 0-54.6-15.5-55.9-30.4-0.7-8.3 0.7-14.1 2.7-22.6 0.6-2.1-2.3-3.7-2.7-4.2-1.9-2-3.6-3.7-5-8.2-1.2-4-0.2-9.4 3.3-13.2 2.5-2.7 6.4-4.6 9.6-4.5 2 0 4.2 0.8 4.9 0.8 0.8-0.2 1.5-1.3 2.6-1.6 2-1 3.5-1.7 7-1.6 4.4 0.1 5.6 1.5 7.6 2.1 0.9 0.2 5.8-2.3 9.8-3.3 5.1-1.3 9.6-2.1 14.9-2.1 8.3 0 19 1.1 28.9 7.5z"/>
  <path class="cls-1" d="m64.6 13.7c5.4 0 8.4 0.7 12.6 1.4l6.1 1.9 6.3 3.2 1.6 0.8 2.9 2.3 0.5 0.6 0.6 0.2 0.9 1.1 1.1 0.7 0.7 1 0.7 0.4 0.8 1.1 0.9 0.7 0.7 1.1 0.6 0.4 1 1.7 0.6 0.4 1.5 2.5 2.8 4.8 1.6 3.8c1.4 3.6 3 9.8 3 14.1 0 13.5-11.7 18.9-21.4 19.2l-40.7 0.1c-2.2 0-4.3 0.3-4.5 2.4 0.6 4.9 8 9.6 19.9 9.6 9.2 0 14.5-2.5 18.5-4.8 2.4-1 4.1-2.8 7.7-2.8 5.9-0.2 13.5 4.6 13.5 4.6-3.9 6.4-9.9 12.5-17.7 16.2s-15.5 12.3-22.3 12.3c-24.7 0-49.9-17.5-50.1-51 0-7.8 1.4-14.6 3.7-20.3 8.2-3.7 16.9-21 22.8-24.2 4-2 9-3.5 9.6-3.6 3.3-0.9 6.6-1.1 8.6-1.6 1.5-0.2 3.8-0.3 4.9-0.3z"/>
  <path class="cls-2" d="m15.1 64.7c-0.1-6.2 0.8-13.3 3.6-21.3l7.4 4.2c-5.4 4.5-9.2 10.3-11 17.1z"/>
  <path class="cls-3" d="m46.2 53c-0.8-0.9-1.2-3.1 1-5.9 1.5-2.2 4.7-5.1 7.4-6.5 2-0.6 2.8-1.9 8.9-2.2 2.9 0 6.5 0.1 8.1 0.8l4.1 1.7 0.9 1 0.9 0.3 2.2 1.9 1.9 2.4 0.9 1.6c1.1 0.8 1.2 4.4 0.1 5.1-0.5 0.4-2.9 0.5-4.2 0.5h-28.8c-1.2 0-3.1-0.3-3.4-0.7z"/>
  <path class="cls-4" d="m46.5 81.7c-0.6-1.6-1.4-2.7 0.4-4.1 0.8-0.4 2.2-0.5 3.7-0.4h39c3.5 0 7-0.3 7.8-0.5l-0.5 6c-1.9-0.6-2.8-1.1-5.3-1.1-4.1 0-5.5 1.3-9.5 3-5.1 2.6-10.5 4.6-17 4.6-8.5 0-14.9-2.1-18.6-7.5z"/>
  <path class="cls-0" d="m43 109.4 4.9 1.8c5.6 2 10.3 2.9 16.6 3.4 7.4 0.1 14.9-1.1 19.2-2.6 2-0.8 6.4-1.9 7.2-2.8l4.3 4c-1.2 1.4-11.7 4.7-12.8 4.8-2 0.6-8.9 1.7-10.8 1.7-4.7 0.3-10 0.2-12.9-0.2-8.1-1.1-11.8-1.9-21.1-6.1l-4.9-3c-3.1-2-6.8-5.3-7.1-5.8l-2.9-3-4.3-5.7-2.3-4.2c-1.9-3.3-4.2-9.3-5.4-16.2-1.3-5.9-1.2-17.1-0.3-22.3l4.2 4.4c-0.2 4.8 0.4 12.3 1.8 20.8l4.1 9.2 2 3.8 1.5 2.2 1.5 2.4 1.9 2.4 4.2 3.7c2.8 2.5 7.8 5.6 11.4 7.3z"/>
  <path class="cls-3" d="m23.4 20.7 2.3-2.2c1.7-1.4 3.3-2.1 6.3-2.1 4.7 0 10.7 2.8 10.6 9.3 0 4.2-0.9 5.7-2.1 7.9l-2 3-5.5 6.8-1.1 1.2c-1.3 1.8-2.5 3-4.4 3.1-1.9 0-2.4-0.3-5.8-2.2l-4.1-2.4-5.5-5.2-3.2-4-1.7-3.5-0.1-4.3 1.4-3.7 3.1-2.9 4.1-1.9 3.9 0.1 3.8 3z"/>
  <path class="cls-5" d="m23.4 20.7c2.5-2.3 3.7-4.2 8.5-4.3 6.1-0.2 8.7 4.7 8.5 9.8 0 3.5-1.7 5.5-2.3 6.7l-5.6 7.7-2.4 3c-1.1 1-1.7 1.9-2.7 1.9-1.3 0.1-3.7-1.5-5.9-2.6l-4-2.8-5-4.2c-1.9-2.2-4-5-4.1-7.2 0-5.3 3.5-10 8.5-10.1 3 0 4.7 1.1 6.5 2.1z"/>
  <path class="cls-6" d="m17.4 19c2.7 0.1 4.2 1.6 6.1 2.5l3-3 3.9-1.5 4.1-0.1c3 0.8 5.7 4 5.7 7.8 0.2 3.8-1.1 6-2.7 8.7l-4.5 6.2-4.1 4.9c-0.5 0.6-1.5 0.7-2.5 0.4l-5-2.5-5.3-3.4-4-3.6c-1.6-1.9-3.5-4.5-3.6-6.9 0-5.3 3.9-9.6 8.9-9.5z"/>
  <path class="cls-7" d="m15.6 23c1.6 0 2.9 0.6 2.9 2.6 0 1.6-1 2.9-2.9 2.8-1.6 0-2.6-1-2.6-2.8 0-1.7 1-2.6 2.6-2.6z"/>
  <path class="cls-8" d="m103.2 72c3.5 0 6 2.7 5.9 6.1v20l5-5.7c2.3-2.3 5.6-2.8 8-0.7l1.4 1.8c0.9 2.1 0.2 4-0.1 5.5l-1.3 1.9-5.5 6.2-5.9 6.9-3.1 3.5c-2.6 2.6-5.7 3.4-9 0.5l-2.1-2.3-0.6-1-1-0.7-4.4-4.8-4.4-5.1-2.1-2.6-2-2.3c-0.9-2-1-4.5 0.5-6.3l1-1.3c3.1-2.1 5.4-2.4 8.4 0l1.7 1.8 3.5 4.7v-20.1c0-2.4 1.9-6 6.1-6z"/>
  <path class="cls-9" d="m106.6 78v26.5l9.8-10.9c1.3-1 3.7-1.1 4.7 0.4 1 1.1 0.9 3.2 0 4l-15.2 18.1c-1.4 1.4-4.3 2.1-6.2 0l-15-17.1c-1.2-1.5-1.2-4 0.4-5.3 1.3-1 3.5-1.1 4.8 0l9.6 10.9v-26.7c0.1-1.5 0.7-2.8 3-3.4 2-0.4 4 1.1 4.1 3.5z"/>
  <path class="cls-6" d="m106.4 77.9v26.2l10-10.5c1.6-1 3.2-0.7 4.2 0.1 1 1.3 1.3 3 0.4 4.2l-15.1 18.2c-0.9 1.1-4 2-5.8 0l-14.9-17.1c-1.1-1.5-1.8-3.5 0.2-5.1 1.3-0.9 3-0.9 4.3 0.1l9.9 10.6-0.1-26.6c0.1-1.6 0.7-2.9 3-3.5 2-0.4 3.7 1.1 3.9 3.4z"/>
</svg>